<svg width="176" height="142" viewBox="0 0 176 142" fill="none" xmlns="http://www.w3.org/2000/svg">
<g clip-path="url(#clip0_204_925)">
<g opacity="0.3">
<path d="M156.785 142C146.174 142 137.571 133.397 137.571 122.785V0H176V122.785C176 133.397 167.397 142 156.785 142Z" fill="#62A83A"/>
<path d="M110.929 103.875C100.317 103.875 91.7139 95.2716 91.7139 84.66V0H130.143V84.66C130.143 95.2716 121.54 103.875 110.929 103.875Z" fill="#62A83A"/>
<path d="M65.0716 79.9323C54.4599 79.9323 45.8569 71.3294 45.8569 60.7178V0H84.2863V60.7178C84.2863 71.3294 75.6833 79.9323 65.0716 79.9323Z" fill="#62A83A"/>
<path d="M19.2147 61.4929C8.60301 61.4929 0 52.8899 0 42.2784V0H38.4294V42.2784C38.4294 52.8899 29.8263 61.4929 19.2147 61.4929Z" fill="#62A83A"/>
</g>
</g>
<defs>
<clipPath id="clip0_204_925">
<rect width="176" height="142" fill="white"/>
</clipPath>
</defs>
</svg>
