<svg width="36" height="37" viewBox="0 0 36 37" fill="none" xmlns="http://www.w3.org/2000/svg">
<g id="facebook">
<path id="Vector" d="M17.999 3.14502C9.74902 3.14502 2.99902 10.0671 2.99902 18.5925C2.99902 26.3009 8.48902 32.6988 15.659 33.855V23.0634H11.849V18.5925H15.659V15.1854C15.659 11.3159 17.894 9.18835 21.329 9.18835C22.964 9.18835 24.674 9.48127 24.674 9.48127V13.2892H22.784C20.924 13.2892 20.339 14.4763 20.339 15.6942V18.5925H24.509L23.834 23.0634H20.339V33.855C23.8737 33.2813 27.0923 31.4277 29.4139 28.6289C31.7355 25.83 33.007 22.2704 32.999 18.5925C32.999 10.0671 26.249 3.14502 17.999 3.14502Z" fill="white"/>
</g>
</svg>
