<svg width="38" height="37" viewBox="0 0 38 37" fill="none" xmlns="http://www.w3.org/2000/svg">
<g id="instagram">
<path id="Vector" d="M12.3493 3.08301H25.6493C30.716 3.08301 34.8327 7.09134 34.8327 12.0247V24.9747C34.8327 27.3462 33.8652 29.6205 32.1429 31.2974C30.4207 32.9743 28.0849 33.9163 25.6493 33.9163H12.3493C7.28268 33.9163 3.16602 29.908 3.16602 24.9747V12.0247C3.16602 9.6532 4.13354 7.37885 5.85575 5.70196C7.57796 4.02507 9.91378 3.08301 12.3493 3.08301ZM12.0327 6.16634C10.5209 6.16634 9.07113 6.75107 8.00217 7.7919C6.93322 8.83273 6.33268 10.2444 6.33268 11.7163V25.283C6.33268 28.3509 8.88185 30.833 12.0327 30.833H25.966C27.4777 30.833 28.9276 30.2483 29.9965 29.2075C31.0655 28.1666 31.666 26.755 31.666 25.283V11.7163C31.666 8.64842 29.1168 6.16634 25.966 6.16634H12.0327ZM27.3118 8.47884C27.8368 8.47884 28.3402 8.68187 28.7113 9.04327C29.0825 9.40467 29.291 9.89483 29.291 10.4059C29.291 10.917 29.0825 11.4072 28.7113 11.7686C28.3402 12.13 27.8368 12.333 27.3118 12.333C26.7869 12.333 26.2835 12.13 25.9124 11.7686C25.5412 11.4072 25.3327 10.917 25.3327 10.4059C25.3327 9.89483 25.5412 9.40467 25.9124 9.04327C26.2835 8.68187 26.7869 8.47884 27.3118 8.47884ZM18.9993 10.7913C21.099 10.7913 23.1126 11.6035 24.5973 13.0491C26.0819 14.4947 26.916 16.4553 26.916 18.4997C26.916 20.5441 26.0819 22.5047 24.5973 23.9503C23.1126 25.3959 21.099 26.208 18.9993 26.208C16.8997 26.208 14.8861 25.3959 13.4014 23.9503C11.9168 22.5047 11.0827 20.5441 11.0827 18.4997C11.0827 16.4553 11.9168 14.4947 13.4014 13.0491C14.8861 11.6035 16.8997 10.7913 18.9993 10.7913ZM18.9993 13.8747C17.7396 13.8747 16.5314 14.3619 15.6406 15.2293C14.7498 16.0967 14.2493 17.273 14.2493 18.4997C14.2493 19.7263 14.7498 20.9027 15.6406 21.77C16.5314 22.6374 17.7396 23.1247 18.9993 23.1247C20.2591 23.1247 21.4673 22.6374 22.3581 21.77C23.2489 20.9027 23.7493 19.7263 23.7493 18.4997C23.7493 17.273 23.2489 16.0967 22.3581 15.2293C21.4673 14.3619 20.2591 13.8747 18.9993 13.8747Z" fill="white"/>
</g>
</svg>
